<?xml version="1.0" standalone="no"?>
<!DOCTYPE svg PUBLIC "-//W3C//DTD SVG 20010904//EN"
 "http://www.w3.org/TR/2001/REC-SVG-20010904/DTD/svg10.dtd">
<svg version="1.0" xmlns="http://www.w3.org/2000/svg"
 width="500.000000pt" height="500.000000pt" viewBox="0 0 500.000000 500.000000"
 preserveAspectRatio="xMidYMid meet">

<g transform="translate(0.000000,500.000000) scale(0.100000,-0.100000)"
fill="#000000" stroke="none">
<path d="M2084 4355 c-12 -8 -24 -27 -27 -42 -4 -20 -19 -35 -54 -54 -131 -72
-201 -158 -223 -276 -22 -113 0 -273 36 -273 11 0 54 -67 54 -84 0 -3 -19 -6
-42 -8 -35 -2 -43 -7 -48 -27 -4 -19 -26 -33 -112 -70 -59 -25 -116 -53 -128
-61 l-22 -16 22 -47 c12 -26 24 -47 26 -47 1 0 38 16 81 36 43 20 95 42 116
50 l37 13 20 -39 c27 -53 26 -57 -16 -65 l-36 -6 7 -47 c7 -50 43 -128 82
-180 25 -34 24 -52 -5 -52 -9 0 -23 -4 -31 -9 -19 -12 24 -104 75 -160 30 -34
35 -44 23 -52 -8 -5 -22 -9 -31 -9 -26 0 -29 -14 -7 -49 14 -24 17 -37 9 -51
-14 -27 -13 -37 11 -61 16 -16 19 -26 12 -42 -9 -20 -12 -17 -32 28 -33 74
-111 292 -111 310 0 18 -4 18 -52 5 -20 -6 -46 -21 -56 -34 l-19 -24 -56 78
c-62 85 -138 155 -161 147 -7 -3 -17 -23 -21 -44 l-7 -38 -19 25 c-60 78 -86
104 -141 141 -58 40 -62 41 -75 24 -7 -11 -13 -30 -13 -44 0 -23 -5 -21 -62
35 -107 103 -148 126 -148 83 0 -11 -3 -19 -7 -17 -5 2 -44 22 -88 44 -138 72
-211 88 -365 84 l-65 -2 53 -24 c103 -47 214 -150 276 -256 21 -36 24 -48 13
-48 -8 0 -20 -6 -26 -13 -8 -11 4 -28 57 -78 37 -35 83 -76 102 -90 l35 -27
-36 -15 c-63 -26 -65 -23 90 -135 25 -18 73 -47 106 -64 l60 -31 -53 -23 c-28
-12 -52 -26 -52 -31 0 -13 158 -108 225 -136 33 -14 80 -30 105 -37 43 -12 44
-12 23 -28 -27 -22 -46 -59 -34 -67 14 -8 187 -43 254 -51 31 -4 57 -8 57 -10
0 -2 -9 -21 -20 -41 -11 -21 -20 -43 -20 -49 0 -7 30 -14 76 -18 86 -8 283
-42 292 -50 3 -3 -2 -14 -10 -23 -9 -10 -19 -27 -22 -39 -6 -19 2 -23 96 -49
114 -30 283 -110 216 -101 -20 2 -81 22 -135 44 l-98 39 -3 -28 -3 -29 -47 24
c-47 23 -275 106 -293 106 -5 0 -2 -16 6 -37 8 -20 14 -37 12 -39 -2 -2 -37 8
-78 22 -40 14 -104 28 -141 31 -65 6 -68 5 -68 -16 0 -12 5 -32 11 -43 10 -19
9 -20 -12 -13 -31 10 -239 19 -239 11 0 -4 6 -19 14 -35 l15 -27 -114 0 c-62
1 -116 -2 -120 -6 -3 -3 1 -20 10 -37 15 -29 15 -32 -2 -37 -123 -37 -206 -86
-274 -163 l-50 -56 61 -3 c52 -3 192 15 267 34 20 5 22 2 25 -38 l3 -43 48 2
c27 2 82 14 124 28 42 14 77 24 79 22 2 -2 -8 -19 -22 -38 l-25 -34 48 -3 c28
-2 87 7 140 21 l92 24 -6 -45 -6 -44 34 7 c58 13 133 43 192 79 l57 35 0 -45
0 -44 107 76 c134 95 138 97 130 54 -4 -18 -7 -45 -7 -61 0 -20 -5 -29 -15
-29 -33 0 -185 -98 -185 -119 0 -5 16 -15 36 -23 l36 -15 -48 -35 c-27 -20
-57 -50 -67 -68 -19 -31 -19 -31 2 -37 12 -3 21 -8 21 -11 0 -3 -20 -39 -44
-81 -46 -79 -83 -168 -74 -177 14 -13 187 76 222 115 26 28 30 27 45 -14 7
-19 16 -35 20 -35 10 0 83 110 102 153 16 35 20 34 43 -6 l18 -32 28 34 c16
19 44 67 62 107 l32 72 31 -35 30 -35 39 38 c42 41 116 186 137 267 6 26 15
47 19 47 16 0 34 -108 33 -205 -1 -155 -33 -294 -128 -555 -9 -25 -35 -84 -57
-132 l-40 -87 19 -33 c44 -75 151 -124 220 -101 l28 10 -3 89 c-3 89 16 182
54 256 26 50 64 200 74 292 11 97 1 232 -26 329 -7 29 -17 63 -20 77 -5 19 17
2 85 -65 97 -95 196 -169 213 -159 6 4 8 26 4 57 l-7 50 64 -60 c59 -54 148
-112 199 -128 18 -6 18 -5 2 35 -9 22 -14 43 -12 45 3 3 20 -2 38 -11 21 -11
74 -20 144 -24 79 -5 132 -15 183 -32 l72 -26 -17 27 c-66 105 -162 194 -232
216 -20 6 -20 7 0 32 40 51 30 60 -70 65 -50 3 -93 8 -96 11 -4 3 1 16 10 29
34 48 10 65 -114 76 -74 7 -74 7 -81 40 -5 26 -3 32 11 32 32 0 231 -60 297
-90 36 -17 68 -30 71 -30 2 0 2 29 0 65 -3 36 -2 65 3 65 13 0 135 -47 197
-76 29 -13 58 -21 64 -18 7 4 9 31 5 75 l-6 67 52 -17 c29 -10 81 -33 116 -50
34 -18 65 -30 68 -27 5 4 -3 30 -22 77 -5 13 3 18 42 24 98 14 225 83 254 136
10 20 9 21 -12 15 -74 -22 -160 -28 -228 -16 -39 6 -73 15 -76 19 -2 5 7 19
20 31 14 13 25 27 25 30 0 27 -184 37 -244 14 -17 -7 -17 -5 -2 24 9 17 16 35
16 41 0 31 -214 18 -312 -19 l-49 -18 7 34 c3 19 2 34 -3 34 -38 0 -183 -49
-250 -85 -74 -39 -83 -42 -83 -24 0 24 -17 24 -82 -1 -28 -11 -53 -18 -55 -16
-6 5 112 65 177 89 57 22 59 24 43 39 -10 8 -31 22 -47 30 -28 15 -29 16 -10
26 25 13 165 39 261 47 l72 7 -15 31 c-9 18 -30 46 -46 64 l-30 31 48 9 c81
13 263 7 313 -11 24 -9 45 -16 47 -16 8 0 4 76 -5 107 l-9 31 46 7 c62 9 205
44 222 55 10 6 7 15 -14 41 -26 31 -27 34 -10 40 104 38 171 66 188 80 l21 17
-29 31 c-16 17 -45 36 -63 42 -19 6 -33 14 -31 17 33 64 68 139 68 148 0 14
83 23 300 35 381 20 429 56 406 311 -3 29 -16 52 -16 28 0 -9 -6 -8 -20 5 -11
10 -20 24 -20 30 0 13 -16 14 -160 16 -81 1 -178 -12 -223 -30 -38 -15 -175
-15 -160 0 6 6 30 13 53 16 l42 6 -5 40 c-3 24 -16 50 -34 69 -26 27 -32 29
-73 23 -48 -7 -60 -17 -60 -50 0 -23 -23 -25 -130 -10 -94 12 -132 -17 -155
-118 -11 -51 -12 -52 -59 -64 -26 -6 -68 -24 -94 -40 -74 -44 -153 -74 -197
-74 -22 0 -67 -5 -100 -11 -33 -6 -71 -10 -84 -9 -13 0 -31 -6 -40 -14 -9 -8
-31 -27 -49 -41 -22 -18 -30 -30 -23 -37 5 -5 7 -15 5 -22 -5 -13 46 -29 79
-26 9 1 20 -5 23 -14 6 -14 8 -14 25 1 10 9 27 14 39 11 11 -3 36 0 55 6 64
19 60 -5 -10 -61 -55 -44 -66 -49 -71 -35 -18 57 -15 57 -84 0 -36 -30 -81
-79 -100 -110 -19 -31 -38 -56 -42 -57 -3 0 -11 14 -17 30 -5 17 -14 30 -18
29 -14 -1 -116 -126 -154 -188 -20 -33 -45 -88 -55 -121 -11 -33 -22 -60 -25
-60 -3 0 -14 9 -24 20 -10 11 -21 20 -25 20 -8 0 -45 -99 -135 -365 -32 -96
-54 -148 -54 -130 0 44 33 172 59 230 19 41 23 64 21 133 -2 77 -1 84 18 89
28 7 74 96 58 112 -6 6 -21 11 -34 11 -20 0 -23 5 -23 41 0 36 -2 40 -20 34
-17 -5 -15 2 15 68 34 74 54 142 55 186 0 24 -7 24 -73 5 -16 -5 -18 -2 -12
18 11 35 18 38 57 26 73 -22 141 38 154 136 7 46 6 48 -17 44 -21 -3 -25 -10
-30 -52 -12 -106 -122 -119 -176 -21 -9 16 -14 17 -40 6 -33 -14 -123 -94
-123 -110 0 -7 11 -6 31 5 17 8 49 22 70 29 37 14 39 13 45 -9 5 -20 -14 -86
-50 -181 -5 -12 5 -5 25 17 35 37 79 59 79 38 0 -14 -42 -123 -82 -212 l-30
-66 -34 14 c-18 8 -52 14 -74 14 -45 0 -47 5 -41 100 6 79 8 95 15 112 10 22
-26 70 -59 79 -32 9 -39 -1 -13 -19 20 -14 20 -16 3 -28 -16 -12 -15 -13 11
-11 37 3 40 -24 4 -33 l-25 -6 23 -8 c25 -8 30 -26 7 -26 -18 0 -19 -12 -3
-28 9 -9 9 -17 -1 -35 -10 -18 -10 -33 -2 -63 14 -51 15 -49 -14 -62 -15 -7
-35 -32 -48 -59 -25 -54 -50 -63 -77 -31 -11 14 -28 21 -47 20 -48 -1 -155 95
-211 189 -20 33 -21 40 -8 45 8 3 40 -8 69 -25 79 -45 90 -38 23 14 -67 51
-108 100 -142 167 -13 26 -24 49 -24 52 0 2 11 6 25 8 16 4 36 -3 57 -18 44
-33 47 -22 7 28 -60 75 -125 187 -143 246 -6 19 -4 22 21 22 22 0 40 -14 83
-64 30 -36 58 -65 62 -65 4 -1 -17 41 -47 93 -62 107 -100 196 -88 206 4 4 26
14 49 23 l41 15 17 -71 c20 -84 53 -132 110 -158 52 -24 69 -24 150 1 86 27
140 76 157 144 l12 47 15 -31 c8 -17 29 -42 45 -56 28 -24 37 -26 86 -20 31 4
60 11 65 16 11 11 46 14 46 4 0 -3 -12 -18 -27 -33 -16 -15 -35 -41 -44 -58
-19 -36 -71 -50 -145 -38 -24 3 -44 2 -44 -3 0 -23 166 -44 196 -24 6 4 16 23
23 43 21 66 95 79 146 25 24 -26 35 -32 48 -24 16 8 16 12 2 39 -14 27 -45 47
-97 63 -10 3 -18 14 -18 25 0 11 -7 24 -15 28 -12 7 -13 16 -5 43 6 19 10 49
10 65 0 29 -20 118 -35 157 -5 13 0 19 22 23 131 29 183 62 183 116 0 52 -101
95 -246 106 l-81 6 -12 81 c-7 50 -21 102 -39 136 -24 47 -36 59 -88 86 -38
20 -85 34 -124 39 -58 7 -63 9 -76 40 -9 22 -24 37 -45 44 -18 6 -33 11 -33
11 -1 0 -11 -7 -22 -15z m54 -37 c21 -21 13 -39 -38 -85 -32 -29 -61 -68 -81
-111 -32 -65 -32 -67 -25 -176 3 -61 9 -123 12 -138 6 -25 3 -28 -19 -28 -19
0 -26 6 -30 28 -3 15 -24 47 -46 71 -54 58 -55 98 -6 215 6 15 5 17 -5 11 -9
-5 -11 -4 -6 4 4 6 11 9 16 6 4 -3 13 2 20 10 11 13 10 14 -4 9 -13 -5 -11 1
7 20 13 14 30 26 36 26 6 0 16 11 21 25 8 20 56 56 75 55 26 -1 34 2 39 16 3
8 2 12 -4 9 -14 -9 -12 19 2 33 7 7 15 12 18 12 3 0 11 -5 18 -12z m70 -135
l10 -28 1 28 c1 31 21 38 21 6 0 -18 5 -20 37 -17 30 2 38 -1 41 -15 3 -14 -4
-17 -35 -18 -45 0 -105 -20 -110 -35 -5 -14 51 -24 133 -24 104 0 127 -46 44
-88 -25 -13 -44 -26 -43 -30 1 -4 5 -20 8 -35 11 -41 -11 -33 -25 9 -7 19 -14
33 -17 30 -3 -3 -1 -19 5 -35 9 -25 8 -31 -3 -31 -7 0 -16 14 -20 30 -6 27
-11 30 -44 30 -42 0 -52 6 -45 25 3 8 19 11 47 9 46 -5 138 23 145 44 3 9 -18
12 -80 13 -143 1 -196 37 -120 84 26 16 32 25 29 48 -2 15 0 27 4 27 4 0 12
-12 17 -27z m203 -10 c26 -30 34 -50 9 -23 -13 14 -33 33 -44 43 -20 18 -20
18 -1 9 11 -6 27 -18 36 -29z m48 -93 c0 -10 -3 -8 -9 5 -12 27 -12 43 0 25 5
-8 9 -22 9 -30z m8 -57 c-3 -10 -5 -4 -5 12 0 17 2 24 5 18 2 -7 2 -21 0 -30z
m248 -147 c75 -19 97 -34 93 -59 -11 -77 -392 -126 -763 -98 -75 5 -85 8 -57
15 19 4 49 5 68 2 23 -5 34 -3 34 5 0 7 10 9 25 7 13 -3 22 -1 19 3 -3 5 1 9
9 9 8 0 28 3 44 6 24 5 35 1 51 -16 20 -22 22 -22 47 -6 14 9 25 26 25 37 0
15 5 19 16 15 8 -3 13 -2 10 3 -6 9 15 21 35 21 5 0 9 -11 9 -24 0 -17 8 -27
28 -34 25 -9 27 -7 29 21 4 55 67 85 111 53 13 -10 41 18 42 42 0 16 61 16
125 -2z m-710 -197 l60 -1 -73 -25 c-40 -14 -75 -23 -77 -22 -2 2 -7 17 -11
33 -6 27 -5 29 17 23 13 -4 51 -7 84 -8z m595 1 c0 -5 -9 -10 -19 -10 -11 0
-23 5 -26 10 -4 6 5 10 19 10 14 0 26 -4 26 -10z m28 -123 c5 -75 -10 -121
-48 -145 -18 -11 -19 -10 -8 13 6 14 17 25 25 25 17 0 17 27 1 33 -8 3 -6 6 5
6 24 1 21 26 -5 44 -19 13 -20 16 -5 16 9 1 17 6 17 12 0 7 -8 18 -17 25 -17
13 -17 13 0 14 26 0 21 30 -5 31 -17 1 -19 2 -5 6 9 2 17 10 17 16 0 7 6 3 12
-7 6 -11 13 -51 16 -89z m-303 29 c30 -110 11 -199 -50 -236 -13 -8 -10 -2 8
18 16 16 32 47 37 67 9 38 -2 133 -20 181 -12 31 -12 34 -1 34 5 0 17 -29 26
-64z m1882 -28 c13 -12 23 -33 23 -49 0 -23 -5 -28 -36 -34 -27 -5 -41 -2 -55
11 -25 22 -26 81 -1 87 34 9 46 7 69 -15z m-251 -111 c-15 -19 -26 -41 -26
-50 0 -10 -4 -17 -9 -17 -5 0 -23 -3 -41 -7 l-33 -6 6 44 c7 53 27 69 84 69
l44 0 -25 -33z m139 15 c6 -4 -12 -29 -42 -59 -49 -49 -53 -51 -63 -33 -14 25
-8 34 42 71 44 31 48 33 63 21z m493 -37 c3 -2 -1 -11 -7 -19 -18 -21 -25
-124 -11 -142 7 -7 16 -11 21 -8 5 3 9 -2 9 -11 0 -9 9 -33 20 -54 l19 -39
-22 -6 c-12 -3 -71 -8 -132 -12 -95 -5 -115 -3 -144 13 -45 23 -69 57 -81 113
l-9 45 3 -51 c1 -29 12 -70 23 -93 l21 -41 -22 -5 c-65 -13 -193 -22 -200 -14
-2 2 -6 30 -9 62 l-6 58 35 -26 c19 -14 50 -33 71 -41 l36 -16 -6 89 c-4 48
-10 105 -13 126 -6 33 -4 37 15 37 16 0 21 -6 21 -27 l0 -26 19 21 c10 12 27
22 39 22 11 0 44 11 73 25 39 17 64 23 89 19 19 -3 46 -1 60 5 23 10 77 7 88
-4z m-457 -104 c6 -34 9 -64 6 -67 -9 -10 -45 15 -67 46 l-22 31 27 35 c16 21
31 32 36 27 5 -5 14 -37 20 -72z m472 54 c-3 -9 -8 -14 -10 -11 -3 3 -2 9 2
15 9 16 15 13 8 -4z m47 11 c0 -3 -4 -8 -10 -11 -5 -3 -10 -1 -10 4 0 6 5 11
10 11 6 0 10 -2 10 -4z m72 -11 c0 -5 -5 -11 -11 -13 -6 -2 -11 4 -11 13 0 9
5 15 11 13 6 -2 11 -8 11 -13z m-3903 -91 c81 -41 118 -65 131 -87 l19 -30 6
37 c4 20 12 36 19 36 24 0 75 -41 132 -106 32 -37 72 -81 87 -98 l28 -31 -25
52 c-14 29 -24 59 -21 67 3 9 7 23 10 32 11 34 51 -8 292 -302 l33 -39 -21 50
c-11 27 -30 65 -41 83 -16 27 -19 40 -12 65 l9 31 42 -38 c42 -37 189 -227
232 -299 42 -69 35 -29 -11 61 -40 81 -43 91 -30 111 24 35 39 24 63 -46 27
-83 86 -202 131 -264 57 -80 130 -159 141 -152 7 4 8 0 4 -11 -6 -14 -3 -17 8
-12 9 3 13 2 10 -4 -7 -12 34 -60 52 -60 8 0 11 -4 8 -10 -3 -6 1 -7 10 -4 12
5 13 9 4 20 -21 26 -3 14 22 -13 13 -15 17 -22 8 -15 -14 10 -18 10 -22 -2 -7
-18 36 -49 50 -35 6 6 16 1 29 -13 l19 -23 -23 19 c-22 19 -22 19 -22 -3 0
-17 -4 -21 -18 -17 -9 3 -24 1 -32 -5 -13 -9 -12 -10 3 -5 9 3 17 1 17 -4 0
-6 -10 -10 -22 -10 -20 -1 -18 -4 12 -19 19 -11 39 -17 44 -14 5 4 6 1 3 -4
-4 -6 5 -18 18 -27 14 -9 40 -31 57 -49 17 -18 28 -26 23 -18 -5 10 -4 12 3 7
7 -4 12 -14 12 -22 0 -9 5 -12 12 -8 6 4 8 3 5 -3 -4 -6 3 -19 15 -29 14 -12
19 -14 13 -4 -11 21 5 5 19 -18 45 -75 132 -179 142 -169 14 14 -82 162 -200
311 -16 20 -26 40 -22 43 3 4 27 -3 51 -15 25 -12 48 -22 52 -22 3 0 -53 61
-125 135 -127 130 -171 188 -153 199 4 3 16 -3 26 -14 10 -11 26 -20 37 -20
10 0 36 -6 58 -12 38 -12 53 -36 55 -83 0 -5 2 -12 5 -15 16 -15 44 -66 41
-75 -1 -5 1 -7 5 -2 4 4 17 -2 28 -12 33 -31 108 -47 157 -34 34 9 39 8 35 -4
-25 -65 -34 -362 -11 -364 6 0 26 64 47 143 36 142 108 350 149 429 18 36 23
40 35 27 11 -11 12 -24 3 -72 -15 -82 -6 -91 15 -15 27 97 75 216 114 284 42
71 90 135 103 135 17 0 9 -69 -16 -137 -21 -59 -22 -65 -5 -43 11 14 20 30 20
35 1 21 83 140 158 226 65 77 78 87 80 68 2 -12 -6 -41 -18 -63 l-22 -41 41
47 c47 53 150 137 200 163 39 20 51 11 51 -40 0 -24 -11 -39 -53 -74 -48 -40
-49 -43 -22 -37 41 10 160 82 193 117 15 16 33 29 40 29 7 0 15 7 18 15 4 8
18 15 33 14 23 0 24 -1 6 -9 -19 -8 -19 -9 3 -9 12 -1 22 2 22 7 0 4 11 7 24
7 18 0 22 -3 14 -12 -6 -7 -16 -13 -23 -13 -8 0 -16 -6 -19 -12 -5 -10 -7 -10
-12 0 -8 16 -43 15 -74 -4 -17 -10 -18 -13 -5 -9 51 18 55 18 55 -4 0 -11 -4
-21 -10 -21 -5 0 -7 8 -3 18 3 9 3 14 -1 10 -4 -3 -9 -14 -10 -23 -1 -9 -16
-27 -32 -40 -37 -31 -19 -32 65 -6 77 24 149 70 228 145 53 50 64 56 69 41 10
-24 -10 -117 -37 -171 -17 -35 -26 -44 -47 -44 -24 -1 -20 -5 31 -36 31 -20
57 -41 57 -48 0 -31 -141 -84 -248 -93 -77 -6 -79 -18 -5 -29 42 -6 88 -38 78
-54 -18 -29 -306 -49 -405 -28 -55 12 -16 -9 63 -33 53 -17 71 -27 82 -50 8
-15 15 -30 15 -32 0 -3 -21 0 -47 5 -125 25 -355 -32 -419 -103 -16 -18 -15
-18 30 -3 46 16 49 16 74 -3 33 -25 39 -43 14 -43 -11 0 -64 -11 -118 -26 -97
-25 -210 -77 -248 -114 -19 -19 -19 -19 16 -8 39 12 112 3 103 -13 -4 -5 -15
-9 -25 -9 -11 0 -45 -11 -76 -25 -31 -14 -61 -22 -67 -18 -5 3 -7 1 -3 -5 3
-6 -13 -25 -39 -43 -25 -18 -52 -43 -60 -56 -9 -13 -21 -21 -27 -17 -7 4 -8 3
-4 -4 4 -6 -1 -19 -11 -29 -19 -19 -73 -125 -73 -143 0 -23 20 -7 49 38 42 66
64 84 156 131 120 62 149 53 72 -21 l-42 -40 60 32 c166 91 205 111 268 135
81 30 87 31 87 6 0 -11 -14 -28 -33 -40 -18 -11 -46 -32 -62 -46 -26 -23 -19
-21 50 13 44 22 109 50 145 62 77 26 250 40 250 21 0 -26 -22 -52 -60 -71 -22
-11 -40 -22 -40 -25 0 -2 33 8 73 22 53 19 94 25 159 27 91 1 116 -8 83 -30
-63 -42 -62 -40 -9 -59 28 -10 94 -20 154 -24 l105 -6 -55 -20 c-40 -14 -81
-20 -153 -20 -97 0 -97 0 -72 -18 14 -11 30 -27 35 -37 9 -16 7 -16 -25 -2
-19 9 -32 18 -30 21 2 3 -9 7 -23 8 -15 1 -63 5 -107 8 -44 4 -91 3 -105 -3
-23 -9 -23 -9 13 -16 37 -7 67 -43 67 -81 0 -19 1 -19 -52 3 -104 45 -348 90
-348 64 0 -5 20 -13 44 -16 43 -7 67 -24 79 -58 8 -23 4 -23 -86 6 -106 34
-209 49 -283 43 -80 -7 -120 -26 -56 -27 37 0 44 -4 53 -26 5 -15 8 -28 6 -30
-2 -3 -46 10 -98 27 -84 28 -102 30 -169 24 -147 -13 -148 -27 -2 -42 118 -13
222 -45 277 -87 l35 -27 6 30 c4 17 10 31 15 31 19 0 116 -23 132 -32 18 -9
18 -10 1 -29 -15 -16 -26 -19 -57 -13 -27 4 -37 3 -33 -5 10 -16 102 -40 179
-48 88 -8 83 -26 -9 -33 -66 -5 -67 -5 -28 -12 73 -13 194 -82 254 -144 52
-54 54 -56 25 -49 -16 4 -58 11 -93 15 -66 9 -125 33 -255 108 -43 24 -80 42
-83 40 -2 -3 2 -18 11 -34 15 -29 20 -54 10 -54 -3 0 -16 9 -28 21 -48 46 -86
70 -142 89 -76 26 -95 26 -61 -1 28 -22 34 -39 13 -39 -34 0 -245 180 -273
233 -16 30 -50 39 -40 10 57 -171 92 -382 81 -497 -11 -115 -53 -291 -96 -394
-22 -54 -43 -117 -46 -141 l-6 -44 -19 22 c-25 32 -23 69 13 157 73 186 113
434 98 611 -7 82 -61 277 -80 288 -5 4 -15 2 -22 -3 -7 -5 -24 -12 -39 -16
-20 -5 -26 -11 -21 -24 5 -16 5 -16 -8 1 -13 16 -16 16 -64 -2 -27 -10 -51
-24 -53 -31 -3 -8 0 -10 8 -5 8 5 11 4 6 -3 -4 -6 -13 -9 -21 -6 -8 4 -12 10
-9 16 3 5 -3 4 -15 -3 -12 -8 -16 -16 -9 -20 11 -7 -2 -40 -18 -42 -5 -1 -8
-6 -6 -10 1 -5 -2 -6 -8 -2 -6 3 -8 10 -5 15 3 4 -1 13 -9 19 -10 8 -20 6 -42
-11 -43 -32 -52 -42 -27 -29 19 10 22 9 17 -4 -4 -10 0 -15 10 -15 29 0 17
-16 -26 -35 -24 -10 -65 -29 -93 -41 l-50 -22 28 -11 c16 -6 34 -11 42 -11 8
0 17 -5 21 -12 4 -7 3 -8 -4 -4 -7 4 -12 4 -12 -1 0 -11 -170 -7 -182 5 -24
24 152 110 230 113 16 1 5 6 -28 13 l-54 11 49 32 c102 65 271 133 334 133 24
1 24 2 7 12 -35 20 -168 2 -262 -35 -62 -26 -84 -31 -84 -20 0 8 19 22 43 33
l42 19 -36 0 c-37 1 -156 -39 -192 -64 -10 -7 -25 -11 -32 -9 -7 3 -16 1 -20
-5 -10 -18 -25 -12 -18 7 6 15 5 15 -10 4 -8 -8 -14 -19 -11 -27 3 -7 1 -15
-4 -19 -7 -4 -8 9 -3 45 1 3 10 15 22 28 25 26 19 37 -10 21 -12 -6 -21 -7
-21 -3 0 4 -14 9 -30 10 -17 1 -30 -2 -30 -7 0 -6 9 -10 20 -10 11 0 20 -5 20
-11 0 -5 -5 -7 -11 -4 -6 4 -20 -3 -31 -15 -11 -12 -23 -18 -27 -13 -3 6 -15
15 -26 20 -18 10 -17 11 7 10 14 -1 24 -6 21 -12 -3 -5 0 -4 8 3 12 11 12 14
-1 22 -8 5 -10 10 -4 10 7 0 14 9 17 20 4 17 0 20 -25 20 -16 0 -27 -4 -24 -9
4 -5 -3 -7 -14 -4 -46 12 -3 24 72 20 54 -3 76 -1 69 6 -11 11 -157 15 -303 8
-58 -3 -91 -1 -101 7 -11 10 -20 9 -42 -2 -20 -10 -34 -12 -46 -5 -14 7 -21 5
-31 -10 -9 -16 -16 -17 -31 -9 -23 12 -132 3 -210 -17 -40 -10 -55 -11 -66 -2
-11 9 -13 9 -8 1 9 -15 -32 -26 -52 -14 -13 7 -13 9 -2 10 8 0 12 3 8 6 -12
12 -28 -7 -18 -20 8 -9 7 -13 -4 -13 -8 0 -15 4 -15 8 0 5 -7 6 -16 2 -13 -5
-13 -7 -2 -14 7 -5 11 -9 8 -9 -3 0 -20 -4 -38 -9 -17 -5 -32 -8 -32 -7 0 1
20 17 45 35 44 31 140 69 220 87 l40 8 -54 6 c-66 6 -78 25 -23 35 40 6 171
-8 232 -25 19 -5 36 -8 38 -5 4 4 -64 35 -79 35 -5 0 -13 9 -19 20 -12 23 -12
23 70 21 52 -2 229 -34 266 -48 34 -13 5 13 -39 35 -35 17 -67 54 -67 76 0 2
24 -1 53 -6 57 -10 167 -49 237 -83 25 -13 63 -27 85 -33 l40 -11 -34 27 c-56
43 -104 92 -98 98 18 18 177 -40 311 -114 43 -24 80 -41 83 -39 2 3 -12 18
-31 34 -20 15 -36 36 -36 46 0 16 3 16 41 -3 48 -25 160 -55 243 -65 l58 -7
-18 25 c-11 14 -30 31 -43 37 -13 6 -21 13 -18 17 4 3 15 0 24 -8 17 -13 17
-13 3 6 -35 48 -44 53 -58 36 -8 -9 -10 -10 -6 -2 5 10 1 12 -17 7 -13 -3 -18
-3 -11 0 6 3 10 10 7 14 -3 5 0 12 6 16 8 4 9 3 5 -4 -4 -7 -2 -12 3 -12 14 0
14 17 1 25 -6 4 -18 1 -27 -7 -15 -12 -15 -11 -5 8 9 18 7 25 -17 49 -16 15
-32 27 -35 26 -19 -3 -26 0 -21 9 3 6 0 10 -9 10 -8 0 -28 11 -44 25 -20 16
-36 23 -48 18 -11 -4 -15 -2 -11 4 4 6 -11 18 -33 28 -33 15 -42 16 -55 5 -13
-11 -15 -10 -10 1 4 10 -5 15 -32 17 -20 1 -40 7 -43 13 -5 6 -15 7 -33 0 -22
-9 -25 -8 -20 6 6 14 -1 15 -48 10 -36 -4 -49 -3 -39 3 12 8 11 10 -7 10 -12
0 -25 -4 -28 -10 -10 -16 -25 -12 -25 6 0 10 5 14 15 10 9 -3 18 0 21 7 3 8
25 14 57 16 57 2 69 7 41 17 -10 3 -35 13 -54 22 -19 8 -54 16 -76 16 -23 1
-37 4 -31 8 12 8 -4 12 -30 9 -7 -1 -13 2 -13 7 0 6 -17 13 -37 17 -77 14 -88
55 -15 55 29 0 48 19 20 21 -7 0 -26 3 -43 6 -16 2 -38 5 -47 6 -10 1 -18 5
-18 9 0 4 -6 5 -12 3 -7 -3 -31 2 -53 10 -22 8 -33 15 -25 15 8 1 2 7 -15 14
-17 8 -37 10 -46 5 -11 -5 -16 -3 -16 6 0 8 4 12 9 9 4 -3 8 -3 8 0 0 8 -78
39 -87 34 -4 -1 -7 -10 -5 -18 2 -13 2 -13 -7 0 -6 9 -6 19 0 26 12 15 -15 39
-32 28 -8 -4 -9 -3 -5 4 4 7 3 12 -2 12 -17 0 -21 -13 -11 -32 9 -16 13 -17
27 -6 15 12 16 11 3 -5 -14 -17 -15 -17 -32 0 -10 10 -19 24 -21 32 -4 16 29
23 52 11 10 -5 21 -5 26 0 5 5 34 10 64 12 l55 3 -28 19 c-16 11 -42 19 -58
19 -19 0 -25 3 -17 9 10 6 8 8 -5 8 -10 0 -28 6 -40 14 -34 21 -71 31 -62 16
4 -7 -6 -5 -23 5 -17 10 -29 22 -27 25 7 11 -52 40 -77 38 -17 -2 -22 2 -20
14 2 12 -3 15 -20 11 -18 -4 -20 -2 -9 5 12 8 12 13 2 25 -10 13 -2 15 66 12
43 -2 69 -1 58 2 -11 3 -24 10 -30 15 -7 8 -6 9 2 4 8 -5 11 -2 7 7 -3 8 -16
19 -30 26 -19 8 -24 8 -18 0 5 -8 3 -9 -7 -3 -8 5 -21 9 -29 9 -8 0 -14 6 -12
14 2 7 -16 34 -40 58 -24 25 -51 54 -60 64 -19 20 -14 49 8 49 22 0 16 26 -13
62 -40 48 -46 53 -65 61 -10 3 -18 13 -18 20 0 20 -27 40 -41 32 -7 -5 3 -21
30 -46 23 -22 37 -39 33 -39 -4 0 -29 22 -55 48 -44 44 -50 62 -23 62 6 0 5
-4 -3 -9 -8 -5 -9 -11 -3 -15 5 -3 13 1 16 10 4 11 -1 18 -14 21 -11 3 -17 9
-14 14 3 5 -2 9 -10 9 -9 0 -16 4 -16 9 0 5 -7 8 -16 7 -9 0 -19 5 -21 12 -8
20 8 15 126 -44z m3185 22 c14 -19 26 -38 26 -43 0 -5 -32 -40 -70 -78 l-71
-70 -63 0 c-83 0 -117 28 -137 110 -7 29 -7 29 -8 -8 -1 -21 6 -52 15 -68 8
-17 14 -33 11 -35 -2 -2 -39 1 -83 6 -43 6 -91 8 -106 5 -20 -5 -30 -1 -43 17
l-17 23 6 -25 c5 -24 3 -26 -28 -22 -19 2 -44 -2 -57 -8 -17 -10 -24 -10 -27
-1 -5 15 -45 14 -60 -1 -9 -9 -12 -9 -12 0 0 15 -36 16 -45 2 -8 -12 -47 -3
-57 13 -11 17 1 27 32 27 16 0 32 5 35 10 3 6 15 10 25 10 11 0 37 9 58 20 33
18 80 26 227 43 11 1 28 9 38 18 10 9 51 31 91 47 65 28 85 31 171 31 54 0
100 3 103 6 11 10 20 4 46 -29z m626 -31 c0 -8 -4 -15 -10 -15 -5 0 -10 7 -10
15 0 8 5 15 10 15 6 0 10 -7 10 -15z m-3745 -145 c-3 -5 -1 -10 6 -10 7 0 10
-3 6 -6 -9 -9 -28 6 -22 17 4 5 8 9 11 9 3 0 2 -4 -1 -10z m15 -65 c-13 -14
-26 -22 -31 -20 -4 3 -10 1 -14 -5 -3 -5 -1 -10 4 -10 6 0 11 -5 11 -11 0 -8
-5 -7 -15 1 -9 7 -13 15 -10 18 3 3 0 11 -7 19 -9 11 -7 12 7 7 13 -5 16 -4
11 5 -4 6 -4 11 1 10 17 -3 53 14 54 25 0 6 3 5 6 -2 3 -7 -5 -24 -17 -37z
m2710 12 c0 -7 -10 -24 -22 -37 l-22 -24 -7 25 c-12 43 -10 49 21 49 18 0 30
-5 30 -13z m-2695 -77 c-3 -5 1 -10 9 -10 17 0 52 -47 43 -56 -11 -11 -26 7
-20 23 5 12 3 14 -7 8 -9 -5 -11 -4 -6 3 4 7 1 12 -9 12 -10 0 -13 -5 -9 -12
4 -7 3 -10 -1 -5 -13 12 -16 47 -4 47 5 0 7 -4 4 -10z m195 -272 c0 -5 -9 -4
-20 2 -11 6 -20 12 -20 14 0 2 9 2 20 -1 11 -3 20 -9 20 -15z m838 -26 c2 -14
-2 -22 -12 -22 -19 0 -29 17 -22 36 8 22 30 12 34 -14z m34 -47 c0 -5 -5 -11
-11 -13 -6 -2 -11 4 -11 13 0 9 5 15 11 13 6 -2 11 -8 11 -13z m628 -40 c0
-28 -6 -31 -25 -11 -10 10 -11 16 -2 25 18 18 27 13 27 -14z m-69 -6 c68 -34
100 -131 79 -235 -18 -84 -60 -125 -126 -123 -27 1 -38 4 -26 6 23 4 22 6 -17
40 -83 71 -107 174 -63 264 25 49 21 60 -9 33 -22 -19 -22 -19 -11 3 15 27 26
31 85 32 30 1 63 -7 88 -20z m173 -10 c-3 -5 -10 -7 -15 -3 -5 3 -7 10 -3 15
3 5 10 7 15 3 5 -3 7 -10 3 -15z m-657 -5 c3 -8 1 -20 -4 -25 -14 -14 -43 0
-43 22 0 24 38 26 47 3z m296 -33 c-6 -3 -13 -19 -17 -35 -4 -15 -9 -26 -11
-24 -9 9 16 78 27 72 6 -4 6 -9 1 -13z m332 -1 c4 -6 1 -18 -6 -26 -12 -14
-14 -14 -26 2 -7 9 -10 21 -7 25 7 12 31 11 39 -1z m-568 -30 c-1 -11 -4 -20
-8 -20 -9 0 -18 37 -12 44 10 10 22 -4 20 -24z m90 -16 c3 -8 1 -20 -6 -27
-14 -14 -47 15 -37 32 10 16 36 13 43 -5z m-872 -14 c3 -5 2 -10 -4 -10 -5 0
-13 5 -16 10 -3 6 -2 10 4 10 5 0 13 -4 16 -10z m663 -16 c6 3 14 1 18 -5 4
-8 3 -9 -4 -5 -7 4 -12 2 -12 -5 0 -8 -4 -8 -15 1 -8 7 -15 18 -15 24 0 6 4 5
9 -3 5 -7 13 -11 19 -7z m280 -7 c2 -9 -2 -17 -8 -17 -6 0 -8 5 -4 12 5 8 2 9
-9 5 -17 -6 -23 4 -10 17 11 10 28 1 31 -17z m-871 -3 c-3 -3 -12 -4 -19 -1
-8 3 -5 6 6 6 11 1 17 -2 13 -5z m648 -44 c10 -11 14 -20 9 -20 -5 0 -15 9
-22 20 -7 11 -11 20 -9 20 2 0 12 -9 22 -20z m277 -12 c-9 -9 -12 -7 -12 12 0
19 3 21 12 12 9 -9 9 -15 0 -24z m-791 -45 c10 -12 11 -15 1 -9 -7 4 -20 2
-30 -6 -15 -11 -15 -11 -5 3 7 9 10 19 6 22 -3 4 -2 7 4 7 6 0 17 -8 24 -17z
m553 -19 c3 -8 2 -12 -4 -9 -6 3 -10 10 -10 16 0 14 7 11 14 -7z m-537 -10
c-3 -3 -12 -4 -19 -1 -8 3 -5 6 6 6 11 1 17 -2 13 -5z m78 -14 l20 -9 -20 0
c-11 0 -27 4 -35 9 -13 9 -13 10 0 9 8 0 24 -4 35 -9z m512 -269 c7 -1 10 -8
6 -17 -6 -15 -7 -15 -20 1 -7 10 -16 16 -19 12 -4 -4 -1 -15 7 -24 12 -16 12
-17 -2 -6 -9 7 -19 10 -22 6 -4 -3 -7 1 -7 10 0 10 -4 17 -10 17 -5 0 -10 -5
-10 -12 0 -6 -3 -9 -6 -5 -3 3 -3 10 0 15 5 8 19 9 83 3z m118 -51 c5 -19 4
-21 -4 -10 -6 8 -11 12 -11 7 0 -4 -14 0 -31 8 -17 9 -28 19 -25 23 4 3 12 0
18 -6 19 -19 41 -15 33 6 -4 11 -3 13 3 7 5 -5 13 -21 17 -35z m-75 0 c0 -5
-4 -10 -10 -10 -5 0 -10 5 -10 10 0 6 5 10 10 10 6 0 10 -4 10 -10z m71 -37
c13 -16 12 -17 -3 -4 -10 7 -18 15 -18 17 0 8 8 3 21 -13z m-627 -202 c-2 -2
1 -10 8 -18 9 -11 6 -12 -16 -3 -15 5 -25 6 -21 1 3 -5 -2 -16 -10 -24 -18
-18 -20 -41 -3 -31 6 4 8 3 5 -3 -12 -19 -71 -13 -94 9 -28 27 -30 47 -3 45
12 -1 20 -8 20 -19 0 -18 18 -34 27 -24 4 4 1 12 -5 18 -16 16 -15 45 1 51 15
6 97 4 91 -2z m43 -16 c0 -8 -4 -15 -9 -15 -10 0 -11 14 -1 23 9 10 10 9 10
-8z m-157 -99 c0 -4 -7 -5 -16 -2 -8 3 -13 2 -10 -3 3 -5 -1 -14 -8 -20 -9 -8
-17 -8 -20 -2 -3 5 -3 11 1 14 5 2 3 2 -4 1 -6 -2 -17 4 -24 12 -10 12 -8 18
9 35 23 20 27 30 15 28 -18 -3 -24 2 -17 13 5 7 19 -2 41 -28 18 -21 33 -43
33 -48z m161 41 c-10 -9 -11 -8 -5 6 3 10 9 15 12 12 3 -3 0 -11 -7 -18z m46
-3 c-3 -3 -12 -4 -19 -1 -8 3 -5 6 6 6 11 1 17 -2 13 -5z m-46 -31 c-12 -8
-25 -12 -28 -9 -4 3 -1 6 6 6 7 0 10 4 7 8 -2 4 5 9 16 9 21 2 21 2 -1 -14z
m29 -8 c0 -2 -10 -9 -22 -15 -22 -11 -22 -10 -4 4 21 17 26 19 26 11z m-262
-35 l3 -25 -16 23 c-18 25 -39 20 -32 -9 5 -18 -3 -23 -31 -20 -8 1 -21 -4
-30 -11 -13 -9 -12 -7 2 9 10 13 22 20 26 18 4 -3 11 7 14 21 5 20 12 25 34
22 20 -2 28 -9 30 -28z m854 -12 c-15 -15 -16 -31 0 -22 7 5 8 3 3 -5 -5 -9
-10 -10 -18 -2 -10 10 6 41 21 41 3 0 1 -5 -6 -12z m-79 -75 c-5 -12 -3 -14 7
-8 8 5 11 4 6 -3 -4 -6 -13 -9 -22 -5 -11 4 -12 9 -3 19 15 19 20 18 12 -3z
m-138 -43 c-27 -12 -43 -12 -25 0 8 5 22 9 30 9 10 0 8 -3 -5 -9z m-30 -69 c3
-5 0 -13 -6 -17 -8 -4 -9 -3 -5 4 12 19 -19 14 -43 -7 -13 -11 -20 -25 -16
-30 3 -6 0 -8 -9 -5 -12 5 -56 -27 -56 -41 0 -2 19 3 43 11 60 22 79 25 71 12
-5 -7 -2 -9 7 -6 10 4 15 -1 17 -15 1 -16 -1 -18 -7 -8 -6 9 -16 11 -27 7 -11
-4 -19 -6 -20 -4 0 2 -8 -3 -17 -11 -9 -7 -14 -17 -11 -22 3 -5 -2 -9 -10 -9
-18 0 -39 -34 -28 -45 4 -5 3 -6 -3 -3 -5 3 -15 0 -22 -7 -10 -11 -10 -15 0
-18 7 -3 4 -6 -7 -6 -10 -1 -29 -11 -41 -23 -12 -13 -40 -38 -62 -55 -22 -18
-43 -36 -48 -40 -5 -5 6 19 24 52 35 62 74 105 118 129 l26 13 -42 7 c-22 3
-41 9 -41 11 0 14 34 55 45 55 7 0 15 4 17 9 5 13 111 71 130 71 9 0 19 -4 23
-9z"/>
<path d="M2456 3787 c3 -10 9 -15 12 -12 3 3 0 11 -7 18 -10 9 -11 8 -5 -6z"/>
<path d="M4152 3530 c8 -14 26 -26 39 -27 14 -2 18 0 9 4 -8 3 -26 15 -40 27
l-24 21 16 -25z"/>
<path d="M4501 3384 c0 -11 3 -14 6 -6 3 7 2 16 -1 19 -3 4 -6 -2 -5 -13z"/>
<path d="M4527 3360 c-4 -15 -1 -27 6 -32 16 -10 20 3 9 32 l-9 24 -6 -24z"/>
<path d="M3620 2980 c-8 -5 -10 -10 -5 -10 6 0 17 5 25 10 8 5 11 10 5 10 -5
0 -17 -5 -25 -10z"/>
<path d="M1025 2900 c-3 -5 -2 -10 4 -10 5 0 13 5 16 10 3 6 2 10 -4 10 -5 0
-13 -4 -16 -10z"/>
<path d="M1300 2825 c7 -9 10 -18 7 -22 -4 -3 -2 -12 4 -20 9 -10 15 -10 25
-2 16 13 37 2 30 -17 -7 -18 13 -29 27 -15 18 18 30 12 23 -13 -7 -27 14 -42
33 -23 16 16 27 -1 13 -23 -14 -24 -1 -35 43 -35 25 0 30 -4 33 -27 3 -24 8
-28 35 -28 24 0 47 -13 92 -51 33 -28 64 -58 68 -65 4 -8 12 -14 17 -14 5 0
49 -24 97 -54 48 -30 90 -52 93 -49 8 8 -100 101 -150 130 -25 14 -75 55 -113
90 -37 34 -74 63 -82 63 -8 0 -22 11 -31 25 -9 14 -24 25 -34 25 -12 0 -20 9
-22 23 -2 16 -10 22 -28 22 -15 0 -29 8 -36 20 -5 11 -20 20 -32 19 -12 0 -22
5 -22 12 0 13 -27 27 -40 19 -4 -3 -10 2 -14 10 -3 8 -15 15 -27 15 -18 0 -19
-2 -9 -15z"/>
<path d="M3444 2790 c-5 -5 -31 -11 -58 -13 -45 -4 -65 -17 -66 -42 0 -6 -17
-19 -37 -30 -76 -41 -204 -151 -266 -230 -35 -44 -24 -38 73 45 35 30 69 58
75 63 5 4 27 21 49 37 21 16 63 42 93 56 34 17 52 32 49 40 -7 19 14 29 25 13
8 -12 12 -11 23 3 7 10 16 14 20 10 4 -4 12 1 17 11 7 11 17 15 32 11 16 -3
29 2 42 17 l20 22 -22 -12 c-16 -8 -29 -9 -41 -2 -12 6 -23 6 -28 1z"/>
<path d="M1045 2770 c-3 -5 -1 -10 4 -10 6 0 11 5 11 10 0 6 -2 10 -4 10 -3 0
-8 -4 -11 -10z"/>
<path d="M1155 2710 c3 -5 11 -10 16 -10 6 0 7 5 4 10 -3 6 -11 10 -16 10 -6
0 -7 -4 -4 -10z"/>
<path d="M3317 1994 c-3 -4 -33 -8 -65 -9 -33 -2 -68 -8 -79 -13 -10 -5 -76
-17 -147 -26 -71 -10 -137 -21 -145 -27 -11 -7 -2 -8 29 -4 25 3 65 7 90 9
137 12 191 20 196 28 3 5 14 6 25 3 12 -4 19 -2 19 7 1 8 6 6 15 -6 14 -18 15
-18 21 -1 7 17 8 17 21 -1 12 -16 13 -16 13 -1 0 9 7 17 15 17 8 0 15 -7 15
-15 0 -8 5 -15 10 -15 14 0 13 33 -2 48 -13 13 -22 15 -31 6z"/>
<path d="M3393 1982 c-6 -4 29 -7 78 -6 49 0 92 4 96 7 9 9 -159 8 -174 -1z"/>
<path d="M2802 1688 c9 -27 193 -108 245 -108 7 0 13 -4 13 -10 0 -5 7 -10 15
-10 8 0 15 -4 15 -9 0 -10 69 -45 76 -39 2 3 -8 16 -23 30 -16 14 -36 36 -46
50 -14 19 -27 25 -60 26 -58 1 -217 55 -217 74 0 4 -5 8 -11 8 -6 0 -9 -6 -7
-12z"/>
<path d="M877 3073 c-4 -3 -7 -11 -7 -17 0 -6 5 -5 12 2 6 6 9 14 7 17 -3 3
-9 2 -12 -2z"/>
<path d="M2440 2585 c0 -8 -11 -25 -25 -39 -43 -43 -28 -89 35 -106 53 -14 53
-35 0 -26 l-40 6 0 -35 c0 -31 4 -38 34 -50 18 -8 36 -23 39 -34 3 -12 11 -18
23 -16 11 2 30 4 43 4 20 1 23 5 18 30 -5 21 -1 34 14 47 14 13 19 28 17 53
-3 31 -9 39 -45 56 -44 20 -60 42 -22 30 23 -8 39 7 39 37 0 10 -11 19 -30 23
-16 4 -30 13 -30 21 0 9 -11 14 -35 14 -24 0 -35 -5 -35 -15z m60 -14 c0 -5 9
-13 20 -16 29 -9 25 -23 -7 -27 -42 -5 -36 -37 11 -63 56 -31 61 -47 26 -80
-17 -16 -30 -39 -30 -52 0 -30 -18 -30 -26 1 -4 17 -14 26 -32 28 -37 4 -41
28 -4 28 17 0 38 8 47 17 16 16 16 18 -5 35 -12 10 -30 18 -40 18 -24 0 -52
34 -44 54 3 9 15 21 25 27 11 5 19 16 19 24 0 8 9 15 20 15 11 0 20 -4 20 -9z"/>
<path d="M1555 1760 c-7 -12 2 -30 16 -30 12 0 12 27 0 35 -5 3 -12 1 -16 -5z"/>
<path d="M2006 1333 c-6 -14 -5 -15 5 -6 7 7 10 15 7 18 -3 3 -9 -2 -12 -12z"/>
<path d="M4308 3463 c7 -3 16 -2 19 1 4 3 -2 6 -13 5 -11 0 -14 -3 -6 -6z"/>
<path d="M4790 3405 c0 -15 34 -55 46 -55 17 0 18 32 2 48 -12 12 -48 17 -48
7z"/>
<path d="M4889 3302 c-3 -41 -2 -62 4 -62 4 0 12 0 18 0 7 0 9 10 4 28 -7 31
-24 53 -26 34z"/>
<path d="M2666 3238 c-21 -30 -20 -56 4 -96 17 -28 25 -33 53 -30 24 2 34 9
41 30 13 36 5 42 -37 30 -46 -13 -58 -1 -15 15 l33 12 -38 -5 c-31 -5 -36 -4
-31 9 3 9 19 19 35 22 32 7 38 20 13 29 -28 11 -42 7 -58 -16z"/>
<path d="M4807 3244 c-3 -3 -3 -13 0 -21 5 -12 7 -12 14 -1 15 23 4 40 -14 22z"/>
</g>
</svg>
